<mxfile host="Electron" agent="Mozilla/5.0 (X11; Linux x86_64) AppleWebKit/537.36 (KHTML, like Gecko) draw.io/26.1.1 Chrome/134.0.6998.205 Electron/35.5.1 Safari/537.36" version="26.1.1">
  <diagram name="Page-1" id="0DK49yOSK4GT866WBKSc">
    <mxGraphModel dx="1159" dy="550" grid="1" gridSize="10" guides="1" tooltips="1" connect="1" arrows="1" fold="1" page="1" pageScale="1" pageWidth="850" pageHeight="1100" math="0" shadow="0">
      <root>
        <mxCell id="0" />
        <mxCell id="1" parent="0" />
        <mxCell id="j-CJ4lTYnN6s81gFAwDC-58" style="edgeStyle=orthogonalEdgeStyle;rounded=0;orthogonalLoop=1;jettySize=auto;html=1;entryX=1;entryY=0.5;entryDx=0;entryDy=0;strokeColor=#000000;" edge="1" parent="1" source="Q3KebQVyQEI9krVQNIRu-1" target="j-CJ4lTYnN6s81gFAwDC-57">
          <mxGeometry relative="1" as="geometry" />
        </mxCell>
        <mxCell id="Q3KebQVyQEI9krVQNIRu-1" value="" style="sketch=0;outlineConnect=0;fontColor=#232F3E;gradientColor=none;fillColor=#000000;strokeColor=#000000;dashed=0;verticalLabelPosition=bottom;verticalAlign=top;align=center;html=1;fontSize=12;fontStyle=0;aspect=fixed;pointerEvents=1;shape=mxgraph.aws4.gear;" parent="1" vertex="1">
          <mxGeometry x="795" y="250" width="78" height="78" as="geometry" />
        </mxCell>
        <mxCell id="Q3KebQVyQEI9krVQNIRu-3" value="clightgen" style="text;html=1;align=center;verticalAlign=middle;resizable=0;points=[];autosize=1;strokeColor=none;fillColor=none;" parent="1" vertex="1">
          <mxGeometry x="799" y="220" width="70" height="30" as="geometry" />
        </mxCell>
        <mxCell id="j-CJ4lTYnN6s81gFAwDC-92" style="edgeStyle=orthogonalEdgeStyle;rounded=0;orthogonalLoop=1;jettySize=auto;html=1;entryX=1;entryY=0.5;entryDx=0;entryDy=0;strokeColor=#000000;" edge="1" parent="1" source="j-CJ4lTYnN6s81gFAwDC-1" target="j-CJ4lTYnN6s81gFAwDC-14">
          <mxGeometry relative="1" as="geometry" />
        </mxCell>
        <mxCell id="j-CJ4lTYnN6s81gFAwDC-1" value="Pre,&amp;nbsp;&lt;span style=&quot;background-color: transparent; color: light-dark(rgb(0, 0, 0), rgb(255, 255, 255));&quot;&gt;Post conditions&lt;/span&gt;" style="rounded=1;whiteSpace=wrap;html=1;fillColor=#E5EDFF;strokeColor=#000000;" vertex="1" parent="1">
          <mxGeometry x="490" y="490" width="120" height="60" as="geometry" />
        </mxCell>
        <mxCell id="j-CJ4lTYnN6s81gFAwDC-4" style="edgeStyle=orthogonalEdgeStyle;rounded=0;orthogonalLoop=1;jettySize=auto;html=1;exitX=0;exitY=0.5;exitDx=0;exitDy=0;strokeColor=#000000;" edge="1" parent="1" source="j-CJ4lTYnN6s81gFAwDC-2" target="j-CJ4lTYnN6s81gFAwDC-3">
          <mxGeometry relative="1" as="geometry">
            <mxPoint x="1030" y="540" as="sourcePoint" />
          </mxGeometry>
        </mxCell>
        <mxCell id="j-CJ4lTYnN6s81gFAwDC-6" value="Write Coq code" style="edgeLabel;html=1;align=center;verticalAlign=middle;resizable=0;points=[];" vertex="1" connectable="0" parent="j-CJ4lTYnN6s81gFAwDC-4">
          <mxGeometry x="-0.0171" relative="1" as="geometry">
            <mxPoint as="offset" />
          </mxGeometry>
        </mxCell>
        <mxCell id="j-CJ4lTYnN6s81gFAwDC-2" value="&lt;span lang=&quot;en&quot; class=&quot;HwtZe&quot;&gt;Natural language specification&lt;/span&gt;&lt;span class=&quot;ZSCsVd&quot;&gt;&lt;/span&gt;&lt;div class=&quot;OvtS8d&quot;&gt;&lt;/div&gt;" style="rounded=1;whiteSpace=wrap;html=1;fillColor=#E5EDFF;strokeColor=#000000;" vertex="1" parent="1">
          <mxGeometry x="1030" y="490" width="120" height="60" as="geometry" />
        </mxCell>
        <mxCell id="j-CJ4lTYnN6s81gFAwDC-11" style="edgeStyle=orthogonalEdgeStyle;rounded=0;orthogonalLoop=1;jettySize=auto;html=1;strokeColor=#000000;" edge="1" parent="1" source="j-CJ4lTYnN6s81gFAwDC-3" target="j-CJ4lTYnN6s81gFAwDC-10">
          <mxGeometry relative="1" as="geometry" />
        </mxCell>
        <mxCell id="j-CJ4lTYnN6s81gFAwDC-12" value="Prove helpful statements" style="edgeLabel;html=1;align=center;verticalAlign=middle;resizable=0;points=[];" vertex="1" connectable="0" parent="j-CJ4lTYnN6s81gFAwDC-11">
          <mxGeometry x="-0.0433" y="-2" relative="1" as="geometry">
            <mxPoint as="offset" />
          </mxGeometry>
        </mxCell>
        <mxCell id="j-CJ4lTYnN6s81gFAwDC-89" style="edgeStyle=orthogonalEdgeStyle;rounded=0;orthogonalLoop=1;jettySize=auto;html=1;entryX=1;entryY=0.5;entryDx=0;entryDy=0;strokeColor=#000000;" edge="1" parent="1" source="j-CJ4lTYnN6s81gFAwDC-3" target="j-CJ4lTYnN6s81gFAwDC-1">
          <mxGeometry relative="1" as="geometry" />
        </mxCell>
        <mxCell id="j-CJ4lTYnN6s81gFAwDC-90" value="Formulate conditions" style="edgeLabel;html=1;align=center;verticalAlign=middle;resizable=0;points=[];" vertex="1" connectable="0" parent="j-CJ4lTYnN6s81gFAwDC-89">
          <mxGeometry x="0.1601" relative="1" as="geometry">
            <mxPoint x="11" as="offset" />
          </mxGeometry>
        </mxCell>
        <mxCell id="j-CJ4lTYnN6s81gFAwDC-3" value="Functional specification" style="rounded=1;whiteSpace=wrap;html=1;fillColor=#E5EDFF;strokeColor=#000000;" vertex="1" parent="1">
          <mxGeometry x="774" y="490" width="120" height="60" as="geometry" />
        </mxCell>
        <mxCell id="j-CJ4lTYnN6s81gFAwDC-10" value="Lemmas" style="rounded=1;whiteSpace=wrap;html=1;fillColor=#E5EDFF;strokeColor=#000000;" vertex="1" parent="1">
          <mxGeometry x="774" y="600" width="120" height="60" as="geometry" />
        </mxCell>
        <mxCell id="j-CJ4lTYnN6s81gFAwDC-100" style="edgeStyle=orthogonalEdgeStyle;rounded=0;orthogonalLoop=1;jettySize=auto;html=1;strokeColor=#000000;" edge="1" parent="1" source="j-CJ4lTYnN6s81gFAwDC-14" target="j-CJ4lTYnN6s81gFAwDC-93">
          <mxGeometry relative="1" as="geometry" />
        </mxCell>
        <mxCell id="j-CJ4lTYnN6s81gFAwDC-14" value="{Pre} Func {Post}" style="rounded=1;whiteSpace=wrap;html=1;fillColor=#E5EDFF;strokeColor=#000000;" vertex="1" parent="1">
          <mxGeometry x="320" y="490" width="120" height="60" as="geometry" />
        </mxCell>
        <mxCell id="j-CJ4lTYnN6s81gFAwDC-37" value="Translate C to Coq" style="text;html=1;align=center;verticalAlign=middle;whiteSpace=wrap;rounded=0;" vertex="1" parent="1">
          <mxGeometry x="804" y="340" width="60" height="30" as="geometry" />
        </mxCell>
        <mxCell id="j-CJ4lTYnN6s81gFAwDC-40" value="&lt;span style=&quot;text-wrap-mode: nowrap;&quot;&gt;streebog_generic.c&lt;/span&gt;" style="swimlane;fontStyle=0;childLayout=stackLayout;horizontal=1;startSize=30;horizontalStack=0;resizeParent=1;resizeParentMax=0;resizeLast=0;collapsible=1;marginBottom=0;whiteSpace=wrap;html=1;fillColor=#E6FFF5;strokeColor=#000000;" vertex="1" parent="1">
          <mxGeometry x="1000" y="340" width="180" height="120" as="geometry" />
        </mxCell>
        <mxCell id="j-CJ4lTYnN6s81gFAwDC-41" value="static void streebog_xor;" style="text;strokeColor=#000000;fillColor=none;align=left;verticalAlign=middle;spacingLeft=4;spacingRight=4;overflow=hidden;points=[[0,0.5],[1,0.5]];portConstraint=eastwest;rotatable=0;whiteSpace=wrap;html=1;" vertex="1" parent="j-CJ4lTYnN6s81gFAwDC-40">
          <mxGeometry y="30" width="180" height="30" as="geometry" />
        </mxCell>
        <mxCell id="j-CJ4lTYnN6s81gFAwDC-42" value="static void streebog_xlps;" style="text;strokeColor=#000000;fillColor=none;align=left;verticalAlign=middle;spacingLeft=4;spacingRight=4;overflow=hidden;points=[[0,0.5],[1,0.5]];portConstraint=eastwest;rotatable=0;whiteSpace=wrap;html=1;" vertex="1" parent="j-CJ4lTYnN6s81gFAwDC-40">
          <mxGeometry y="60" width="180" height="30" as="geometry" />
        </mxCell>
        <mxCell id="j-CJ4lTYnN6s81gFAwDC-43" value="static void streebog_round;" style="text;strokeColor=#000000;fillColor=none;align=left;verticalAlign=middle;spacingLeft=4;spacingRight=4;overflow=hidden;points=[[0,0.5],[1,0.5]];portConstraint=eastwest;rotatable=0;whiteSpace=wrap;html=1;" vertex="1" parent="j-CJ4lTYnN6s81gFAwDC-40">
          <mxGeometry y="90" width="180" height="30" as="geometry" />
        </mxCell>
        <mxCell id="j-CJ4lTYnN6s81gFAwDC-47" value="&lt;span style=&quot;text-wrap-mode: nowrap;&quot;&gt;streebog_generic.v&lt;/span&gt;" style="swimlane;fontStyle=0;childLayout=stackLayout;horizontal=1;startSize=30;horizontalStack=0;resizeParent=1;resizeParentMax=0;resizeLast=0;collapsible=1;marginBottom=0;whiteSpace=wrap;html=1;fillColor=#E6FFF5;strokeColor=#000000;" vertex="1" parent="1">
          <mxGeometry x="460" y="340" width="180" height="120" as="geometry" />
        </mxCell>
        <mxCell id="j-CJ4lTYnN6s81gFAwDC-48" value="f_streebog_xor" style="text;strokeColor=#000000;fillColor=none;align=left;verticalAlign=middle;spacingLeft=4;spacingRight=4;overflow=hidden;points=[[0,0.5],[1,0.5]];portConstraint=eastwest;rotatable=0;whiteSpace=wrap;html=1;" vertex="1" parent="j-CJ4lTYnN6s81gFAwDC-47">
          <mxGeometry y="30" width="180" height="30" as="geometry" />
        </mxCell>
        <mxCell id="j-CJ4lTYnN6s81gFAwDC-49" value="f_streebog_xlps" style="text;strokeColor=#000000;fillColor=none;align=left;verticalAlign=middle;spacingLeft=4;spacingRight=4;overflow=hidden;points=[[0,0.5],[1,0.5]];portConstraint=eastwest;rotatable=0;whiteSpace=wrap;html=1;" vertex="1" parent="j-CJ4lTYnN6s81gFAwDC-47">
          <mxGeometry y="60" width="180" height="30" as="geometry" />
        </mxCell>
        <mxCell id="j-CJ4lTYnN6s81gFAwDC-50" value="f_streebog_round" style="text;strokeColor=#000000;fillColor=none;align=left;verticalAlign=middle;spacingLeft=4;spacingRight=4;overflow=hidden;points=[[0,0.5],[1,0.5]];portConstraint=eastwest;rotatable=0;whiteSpace=wrap;html=1;" vertex="1" parent="j-CJ4lTYnN6s81gFAwDC-47">
          <mxGeometry y="90" width="180" height="30" as="geometry" />
        </mxCell>
        <mxCell id="j-CJ4lTYnN6s81gFAwDC-59" style="edgeStyle=orthogonalEdgeStyle;rounded=0;orthogonalLoop=1;jettySize=auto;html=1;strokeColor=#000000;" edge="1" parent="1" source="j-CJ4lTYnN6s81gFAwDC-57" target="j-CJ4lTYnN6s81gFAwDC-47">
          <mxGeometry relative="1" as="geometry" />
        </mxCell>
        <mxCell id="j-CJ4lTYnN6s81gFAwDC-98" style="edgeStyle=orthogonalEdgeStyle;rounded=0;orthogonalLoop=1;jettySize=auto;html=1;entryX=0;entryY=0.5;entryDx=0;entryDy=0;strokeColor=#000000;" edge="1" parent="1" source="j-CJ4lTYnN6s81gFAwDC-57" target="j-CJ4lTYnN6s81gFAwDC-93">
          <mxGeometry relative="1" as="geometry" />
        </mxCell>
        <mxCell id="j-CJ4lTYnN6s81gFAwDC-105" style="edgeStyle=orthogonalEdgeStyle;rounded=0;orthogonalLoop=1;jettySize=auto;html=1;" edge="1" parent="1" source="j-CJ4lTYnN6s81gFAwDC-57" target="j-CJ4lTYnN6s81gFAwDC-14">
          <mxGeometry relative="1" as="geometry" />
        </mxCell>
        <mxCell id="j-CJ4lTYnN6s81gFAwDC-57" value="Abstract Syntax Tree&lt;br&gt;(AST)" style="rounded=1;whiteSpace=wrap;html=1;fillColor=#E6FFF5;strokeColor=#000000;" vertex="1" parent="1">
          <mxGeometry x="490" y="259" width="120" height="60" as="geometry" />
        </mxCell>
        <mxCell id="j-CJ4lTYnN6s81gFAwDC-76" style="edgeStyle=orthogonalEdgeStyle;rounded=0;orthogonalLoop=1;jettySize=auto;html=1;strokeColor=#000000;" edge="1" parent="1" source="j-CJ4lTYnN6s81gFAwDC-74" target="j-CJ4lTYnN6s81gFAwDC-40">
          <mxGeometry relative="1" as="geometry" />
        </mxCell>
        <mxCell id="j-CJ4lTYnN6s81gFAwDC-74" value="C source code" style="rounded=1;whiteSpace=wrap;html=1;fillColor=#E6FFF5;strokeColor=#000000;" vertex="1" parent="1">
          <mxGeometry x="1030" y="259" width="120" height="60" as="geometry" />
        </mxCell>
        <mxCell id="j-CJ4lTYnN6s81gFAwDC-78" value="" style="endArrow=none;html=1;rounded=0;entryX=0;entryY=0.5;entryDx=0;entryDy=0;strokeColor=#000000;" edge="1" parent="1" source="Q3KebQVyQEI9krVQNIRu-1" target="j-CJ4lTYnN6s81gFAwDC-74">
          <mxGeometry width="50" height="50" relative="1" as="geometry">
            <mxPoint x="900" y="288.9999999999999" as="sourcePoint" />
            <mxPoint x="847" y="390" as="targetPoint" />
          </mxGeometry>
        </mxCell>
        <mxCell id="j-CJ4lTYnN6s81gFAwDC-83" value="" style="endArrow=classic;html=1;rounded=0;entryX=1;entryY=0.5;entryDx=0;entryDy=0;strokeColor=#000000;" edge="1" parent="1" target="j-CJ4lTYnN6s81gFAwDC-93">
          <mxGeometry width="50" height="50" relative="1" as="geometry">
            <mxPoint x="750" y="600" as="sourcePoint" />
            <mxPoint x="500" y="570" as="targetPoint" />
          </mxGeometry>
        </mxCell>
        <mxCell id="j-CJ4lTYnN6s81gFAwDC-93" value="Proof" style="rounded=1;whiteSpace=wrap;html=1;fillColor=#FFD166;strokeColor=#000000;" vertex="1" parent="1">
          <mxGeometry x="320" y="600" width="120" height="60" as="geometry" />
        </mxCell>
        <mxCell id="j-CJ4lTYnN6s81gFAwDC-109" value="" style="endArrow=classic;html=1;rounded=0;entryX=1;entryY=0;entryDx=0;entryDy=0;exitX=0;exitY=1;exitDx=0;exitDy=0;shadow=1;dashed=1" edge="1" parent="1" source="j-CJ4lTYnN6s81gFAwDC-74" target="j-CJ4lTYnN6s81gFAwDC-1">
          <mxGeometry width="50" height="50" relative="1" as="geometry">
            <mxPoint x="700" y="490" as="sourcePoint" />
            <mxPoint x="750" y="440" as="targetPoint" />
          </mxGeometry>
        </mxCell>
        <mxCell id="j-CJ4lTYnN6s81gFAwDC-112" value="" style="endArrow=none;dashed=1;html=1;rounded=0;" edge="1" parent="1">
          <mxGeometry width="50" height="50" relative="1" as="geometry">
            <mxPoint x="790" y="680" as="sourcePoint" />
            <mxPoint x="790" y="480" as="targetPoint" />
            <Array as="points">
              <mxPoint x="760" y="680" />
              <mxPoint x="760" y="480" />
            </Array>
          </mxGeometry>
        </mxCell>
      </root>
    </mxGraphModel>
  </diagram>
</mxfile>
